<?xml version="1.0" standalone="no"?><!-- Generator: Gravit.io --><svg xmlns="http://www.w3.org/2000/svg" xmlns:xlink="http://www.w3.org/1999/xlink" style="isolation:isolate" viewBox="0 0 96 96" width="96" height="96"><defs><clipPath id="_clipPath_9Ddx9qzXVsxBCSJc8gR23Qynz0swqEwt"><rect width="96" height="96"/></clipPath></defs><g clip-path="url(#_clipPath_9Ddx9qzXVsxBCSJc8gR23Qynz0swqEwt)"><path d="M 4.32 0 L 91.68 0 C 94.064 0 96 1.936 96 4.32 L 96 91.68 C 96 94.064 94.064 96 91.68 96 L 4.32 96 C 1.936 96 0 94.064 0 91.68 L 0 4.32 C 0 1.936 1.936 0 4.32 0 Z" style="stroke:none;fill:#00D2FF;stroke-miterlimit:10;"/><path d=" M 33.396 30.54 L 33.396 30.54 Q 33.396 27.372 32.784 26.112 L 32.784 26.112 L 32.784 26.112 Q 32.172 24.852 30.768 24.852 L 30.768 24.852 L 30.768 24.852 Q 29.364 24.852 28.212 26.292 L 28.212 26.292 L 28.212 32.916 L 28.212 32.916 Q 28.212 33.852 28.14 34.32 L 28.14 34.32 L 28.14 34.32 Q 28.068 34.788 27.6 35.364 L 27.6 35.364 L 27.6 35.364 Q 27.132 35.94 26.124 36.3 L 26.124 36.3 L 18.636 39.18 L 17.628 38.172 L 17.628 38.172 Q 19.572 36.012 19.572 33.564 L 19.572 33.564 L 19.572 25.356 L 19.572 25.356 Q 19.572 24.924 27.168 21.828 L 27.168 21.828 L 27.168 21.828 Q 34.764 18.732 36.096 18.732 L 36.096 18.732 L 36.096 18.732 Q 37.428 18.732 39.732 21.936 L 39.732 21.936 L 39.732 21.936 Q 42.036 25.14 42.036 26.868 L 42.036 26.868 L 42.036 36.732 L 42.036 36.732 Q 42.036 40.548 37.824 48.18 L 37.824 48.18 L 37.824 48.18 Q 33.612 55.812 29.436 61.5 L 29.436 61.5 L 25.26 67.26 L 25.26 67.26 Q 33.252 67.116 34.548 67.116 L 34.548 67.116 L 34.548 67.116 Q 38.508 67.116 39.372 64.74 L 39.372 64.74 L 39.372 64.74 Q 40.164 64.812 40.524 64.812 L 40.524 64.812 L 40.956 64.812 L 44.988 70.644 L 44.988 70.644 Q 44.772 71.004 44.376 71.616 L 44.376 71.616 L 44.376 71.616 Q 43.98 72.228 42.576 73.2 L 42.576 73.2 L 42.576 73.2 Q 41.172 74.172 39.516 74.172 L 39.516 74.172 L 19.284 74.172 L 19.284 74.172 Q 17.772 70.284 17.772 67.476 L 17.772 67.476 L 17.772 67.476 Q 17.772 66.54 21.66 60.672 L 21.66 60.672 L 21.66 60.672 Q 25.548 54.804 29.472 48.36 L 29.472 48.36 L 29.472 48.36 Q 33.396 41.916 33.396 39.612 L 33.396 39.612 L 33.396 30.54 Z  M 48.516 63.66 L 48.516 63.66 L 48.516 25.356 L 48.516 25.356 Q 48.516 24.852 56.724 21.792 L 56.724 21.792 L 56.724 21.792 Q 64.932 18.732 66.156 18.732 L 66.156 18.732 L 66.156 18.732 Q 67.38 18.732 69.864 21.684 L 69.864 21.684 L 69.864 21.684 Q 72.348 24.636 72.348 27.012 L 72.348 27.012 L 72.348 67.476 L 72.348 67.476 Q 72.348 68.052 64.464 71.112 L 64.464 71.112 L 64.464 71.112 Q 56.58 74.172 54.816 74.172 L 54.816 74.172 L 54.816 74.172 Q 53.052 74.172 50.784 71.076 L 50.784 71.076 L 50.784 71.076 Q 48.516 67.98 48.516 63.66 Z  M 60.828 67.548 L 60.828 67.548 L 60.828 67.548 Q 62.196 67.548 63.636 66.396 L 63.636 66.396 L 63.636 30.756 L 63.636 30.756 Q 63.636 25.428 59.964 25.428 L 59.964 25.428 L 59.964 25.428 Q 58.524 25.428 57.156 26.508 L 57.156 26.508 L 57.156 62.22 L 57.156 62.22 Q 57.156 67.548 60.828 67.548 Z  M 58.812 50.484 L 58.812 50.484 L 58.812 44.652 L 58.812 44.652 Q 58.812 44.58 59.892 44.148 L 59.892 44.148 L 59.892 44.148 Q 60.972 43.716 61.152 43.716 L 61.152 43.716 L 61.152 43.716 Q 61.332 43.716 61.656 44.148 L 61.656 44.148 L 61.656 44.148 Q 61.98 44.58 61.98 45.084 L 61.98 45.084 L 61.98 51.276 L 61.98 51.276 Q 61.98 51.348 60.936 51.744 L 60.936 51.744 L 60.936 51.744 Q 59.892 52.14 59.64 52.14 L 59.64 52.14 L 59.64 52.14 Q 59.388 52.14 59.1 51.708 L 59.1 51.708 L 59.1 51.708 Q 58.812 51.276 58.812 50.484 Z " fill-rule="evenodd" fill="rgb(255,255,255)"/></g></svg>